<mxfile host="app.diagrams.net" modified="2024-04-16T05:00:50.895Z" agent="Mozilla/5.0 (Windows NT 10.0; Win64; x64) AppleWebKit/537.36 (KHTML, like Gecko) Chrome/123.0.0.0 Safari/537.36" version="24.2.5" etag="pm2OhzD0F_WaBGvBMoMF" type="github">
  <diagram name="Strona-1" id="AZuU2RG3B2MmnvAVzGZ7">
    <mxGraphModel>
      <root>
        <mxCell id="0" />
        <mxCell id="1" parent="0" />
      </root>
    </mxGraphModel>
  </diagram>
</mxfile>
